<?xml version="1.0" encoding="UTF-8" standalone="no"?>
<svg
   xmlns:dc="http://purl.org/dc/elements/1.1/"
   xmlns:cc="http://creativecommons.org/ns#"
   xmlns:rdf="http://www.w3.org/1999/02/22-rdf-syntax-ns#"
   xmlns:svg="http://www.w3.org/2000/svg"
   xmlns="http://www.w3.org/2000/svg"
   xmlns:sodipodi="http://sodipodi.sourceforge.net/DTD/sodipodi-0.dtd"
   xmlns:inkscape="http://www.inkscape.org/namespaces/inkscape"
   height="36.599998"
   id="形状_1_1_"
   version="1.1"
   viewBox="0 0 47.900001 36.599999"
   width="47.900002"
   xml:space="preserve"
   sodipodi:docname="mail.svg"
   inkscape:version="1.0.2-2 (e86c870879, 2021-01-15)"><metadata
     id="metadata12"><rdf:RDF><cc:Work
         rdf:about=""><dc:format>image/svg+xml</dc:format><dc:type
           rdf:resource="http://purl.org/dc/dcmitype/StillImage" /><dc:title></dc:title></cc:Work></rdf:RDF></metadata><defs
     id="defs10" /><sodipodi:namedview
     pagecolor="#ffffff"
     bordercolor="#666666"
     borderopacity="1"
     objecttolerance="10"
     gridtolerance="10"
     guidetolerance="10"
     inkscape:pageopacity="0"
     inkscape:pageshadow="2"
     inkscape:window-width="1920"
     inkscape:window-height="1001"
     id="namedview8"
     showgrid="false"
     fit-margin-top="0"
     fit-margin-left="0"
     fit-margin-right="0"
     fit-margin-bottom="0"
     inkscape:zoom="1.6210938"
     inkscape:cx="-9.459405"
     inkscape:cy="-191.76719"
     inkscape:window-x="-9"
     inkscape:window-y="-9"
     inkscape:window-maximized="1"
     inkscape:current-layer="形状_1_1_"
     inkscape:document-rotation="0" /><g
     id="形状_1"
     transform="translate(-265.4594,-447.76719)"
     style="fill:#00adef;fill-opacity:1"><g
       id="g4"
       style="fill:#00adef;fill-opacity:1"><path
         d="m 321.685,227.353 c -14.067,-0.185 -19.343,12.533 -19.343,26.246 0,12.396 4.642,26.771 19.343,26.771 15.338,-0.17 19.123,-15.543 19.123,-26.771 0,-14.206 -6.272,-26.073 -19.123,-26.246 z m 86.7,-1.989 c -12.077,0 -19.335,7.437 -21.958,19.163 h 42.252 c -1.305,-11.048 -9.56,-19.163 -20.294,-19.163 z m 77.608,-6.832 c 0,-13.992 -11.307,-25.293 -25.29,-25.293 -7.229,0 -13.714,3.014 -18.313,7.867 -10.7,-7.437 -23.662,-11.793 -37.69,-11.793 -14.166,0 -27.231,4.458 -38.005,12.04 -4.85,-4.498 -11.294,-7.229 -18.413,-7.229 -5.28,0 -10.206,1.528 -14.38,4.145 -9.884,-17.635 -28.726,-29.539 -50.367,-29.539 -19.797,0 -37.229,9.922 -47.672,25.042 -8.714,-8.954 -20.899,-14.52 -34.393,-14.52 -8.926,0 -17.247,2.445 -24.405,6.69 -0.172,-17.035 -13.992,-30.776 -31.061,-30.776 -17.18,0 -31.096,13.921 -31.096,31.062 l 0.072,1.206 c -3.33,-0.495 -6.73,-0.779 -10.202,-0.779 -10.129,0 -19.693,2.229 -28.3,6.197 -4.85,-2.585 -10.343,-4.076 -16.223,-4.076 -18.876,0 -34.248,15.338 -34.248,34.255 0,10.022 4.357,18.981 11.194,25.254 -0.179,2.055 -0.286,4.145 -0.286,6.232 0,37.475 30.391,67.826 67.864,67.826 14.554,0 28.053,-4.604 39.097,-12.397 9.956,13.606 26.004,22.493 44.136,22.493 0.459,0 0.886,-0.034 1.308,-0.075 5.244,14.843 19.306,25.471 35.915,25.471 16.794,0 31.063,-10.908 36.09,-26.034 5.778,10.945 17.213,18.384 30.423,18.384 16.508,0 30.288,-11.652 33.616,-27.165 2.374,0.314 4.813,0.533 7.261,0.533 13.463,0 25.683,-5.109 34.989,-13.429 10.562,7.189 23.345,11.407 37.086,11.407 36.522,0 66.095,-29.614 66.095,-66.129 0,-4.501 -0.427,-8.926 -1.312,-13.176 9.631,-3.58 16.51,-12.82 16.51,-23.694 z m -45.09,39.842 h -54.477 c 0,12.716 8.251,21.995 22.276,21.995 18.172,0 18.172,-11.898 27.911,-11.898 5.776,0 9.917,4.959 9.917,9.419 0,14.521 -23.302,21.284 -37.828,21.284 -27.409,0 -40.943,-15.085 -45.013,-32.015 -3.647,17.749 -15.273,32.015 -35.92,32.015 -11.049,0 -19.296,-4.457 -23.76,-12.213 h -0.354 v 32.199 c 0,7.93 -4.787,12.072 -12.044,12.072 -7.268,0 -12.044,-4.143 -12.044,-12.072 v -89.825 l -27.098,76.789 c -5.767,16.502 -12.397,25.108 -27.59,25.108 -10.729,0 -15.196,-5.276 -15.196,-11.086 0,-6.451 4.642,-9.743 11.091,-9.743 h 2.476 c 3.118,0 6.586,-0.137 8.398,-7.579 l -25.08,-71.507 c -0.884,-2.587 -1.557,-4.532 -2.049,-6.165 -0.57,0.745 -1.204,1.416 -1.956,2.2 l -17.812,18.664 25.114,33.684 c 0.813,1.13 2.476,3.791 2.476,7.753 0,6.13 -4.956,11.721 -11.401,11.721 -5.951,0 -9.105,-2.968 -10.909,-5.591 l -22.779,-32.233 -8.427,7.438 v 18.347 c 0,7.903 -4.783,12.039 -12.044,12.039 -7.296,0 -12.079,-4.136 -12.079,-12.039 v -8.89 c -4.317,14.238 -20.434,20.929 -35.983,20.929 -21.783,0 -39.95,-9.737 -39.95,-21.636 0,-5.276 2.973,-10.058 9.738,-10.058 10.411,0 11.407,14.873 29.22,14.873 8.573,0 14.027,-3.825 14.027,-8.746 0,-6.127 -5.28,-7.117 -13.848,-9.279 l -14.203,-3.439 c -14.026,-3.465 -24.935,-9.278 -24.935,-25.467 0,-19.616 19.48,-26.913 36.158,-26.913 18.31,0 36.835,7.297 36.835,18.345 0,5.628 -3.824,10.557 -10.091,10.557 -9.423,0 -9.743,-11.054 -24.936,-11.054 -8.427,0 -13.883,2.302 -13.883,7.437 0,5.6 5.456,6.943 12.892,8.578 l 10.057,2.334 c 11.586,2.621 25.009,7.19 28.9,18.667 v -75.334 c 0,-7.898 4.783,-12.041 12.079,-12.041 7.261,0 12.044,4.143 12.044,12.041 v 54.821 l 26.74,-29.713 c 2.481,-2.655 5.633,-4.638 9.245,-4.638 3.931,0 8.108,2.549 10.13,6.232 1.948,-3.757 5.845,-6.232 10.377,-6.232 6.444,0 10.908,3.646 12.358,9.1 l 15.549,56.316 h 0.321 l 14.703,-54.648 c 1.663,-6.13 4.955,-10.768 11.579,-10.768 5.702,0 8.995,2.829 10.735,5.735 1.445,-3.719 4.672,-5.735 9.877,-5.735 7.119,0 10.908,3.997 10.908,11.401 v 3.791 h 0.354 c 3.973,-10.23 13.709,-15.192 25.396,-15.192 17.212,0 32.584,10.803 36.734,33.363 4.67,-20.399 20.361,-33.363 44.06,-33.363 27.733,0 43.599,19.656 43.599,39.49 0.004,8.253 -2.477,10.375 -10.585,10.375 z m 16.324,-45.335 h -4.53 v 12.399 h -3.366 v -12.399 h -4.535 v -2.796 h 12.432 v 2.796 z m 18.097,12.399 h -3.113 c 0,0 -0.036,0 -0.036,-10.769 l -3.723,10.769 h -2.585 c 0,0 -0.036,0 -3.752,-10.663 v 10.663 h -3.154 v -15.195 h 4.715 c 0,0 0.036,0 3.612,10.446 l 3.365,-10.446 h 4.671 z"
         style="clip-rule:evenodd;fill:#00adef;fill-opacity:1;fill-rule:evenodd"
         id="path2" /></g></g><g
     id="g7"
     transform="translate(-8.1,-13.8)"
     style="fill:#00adef;fill-opacity:1"><g
       id="Icon-Envelope"
       transform="translate(78,232)"
       style="fill:#00adef;fill-opacity:1"><path
         class="st0"
         d="m -22.5,-213.2 -1.9,-1.9 -17.6,17.6 c -2.2,2.2 -5.9,2.2 -8.1,0 l -17.6,-17.5 -1.9,1.9 13.1,13.1 -13.1,13.1 1.9,1.9 13.1,-13.1 2.6,2.6 c 1.6,1.6 3.7,2.5 5.9,2.5 2.2,0 4.3,-0.9 5.9,-2.5 l 2.6,-2.6 13.1,13.1 1.9,-1.9 -13.1,-13.1 13.2,-13.2"
         id="Fill-3"
         style="fill:#00adef;fill-opacity:1" /><path
         class="st0"
         d="m -26.2,-181.6 h -39.5 c -2.3,0 -4.2,-1.9 -4.2,-4.2 V -214 c 0,-2.3 1.9,-4.2 4.2,-4.2 h 39.5 c 2.3,0 4.2,1.9 4.2,4.2 v 28.2 c 0,2.3 -1.9,4.2 -4.2,4.2 z m -39.6,-33.9 c -0.8,0 -1.4,0.6 -1.4,1.4 v 28.2 c 0,0.8 0.6,1.4 1.4,1.4 h 39.5 c 0.8,0 1.4,-0.6 1.4,-1.4 v -28.2 c 0,-0.8 -0.6,-1.4 -1.4,-1.4 z"
         id="Fill-4"
         style="fill:#00adef;fill-opacity:1" /></g></g></svg>
