<?xml version="1.0" encoding="UTF-8" standalone="no"?>
<svg
   xmlns:dc="http://purl.org/dc/elements/1.1/"
   xmlns:cc="http://creativecommons.org/ns#"
   xmlns:rdf="http://www.w3.org/1999/02/22-rdf-syntax-ns#"
   xmlns:svg="http://www.w3.org/2000/svg"
   xmlns="http://www.w3.org/2000/svg"
   xmlns:sodipodi="http://sodipodi.sourceforge.net/DTD/sodipodi-0.dtd"
   xmlns:inkscape="http://www.inkscape.org/namespaces/inkscape"
   height="36.599998"
   id="形状_1_1_"
   version="1.1"
   viewBox="0 0 47.900001 36.599999"
   width="47.900002"
   xml:space="preserve"
   sodipodi:docname="mail-white.svg"
   inkscape:version="1.0.2-2 (e86c870879, 2021-01-15)"><metadata
     id="metadata12"><rdf:RDF><cc:Work
         rdf:about=""><dc:format>image/svg+xml</dc:format><dc:type
           rdf:resource="http://purl.org/dc/dcmitype/StillImage" /><dc:title></dc:title></cc:Work></rdf:RDF></metadata><defs
     id="defs10" /><sodipodi:namedview
     pagecolor="#ffffff"
     bordercolor="#666666"
     borderopacity="1"
     objecttolerance="10"
     gridtolerance="10"
     guidetolerance="10"
     inkscape:pageopacity="0"
     inkscape:pageshadow="2"
     inkscape:window-width="1920"
     inkscape:window-height="1001"
     id="namedview8"
     showgrid="false"
     fit-margin-top="0"
     fit-margin-left="0"
     fit-margin-right="0"
     fit-margin-bottom="0"
     inkscape:zoom="1.6210938"
     inkscape:cx="-9.459405"
     inkscape:cy="109.26413"
     inkscape:window-x="-9"
     inkscape:window-y="-9"
     inkscape:window-maximized="1"
     inkscape:current-layer="形状_1_1_"
     inkscape:document-rotation="0" /><g
     id="g7"
     transform="translate(-8.1,-13.8)"
     style="fill:#ffffff;fill-opacity:1"><g
       id="Icon-Envelope"
       transform="translate(78,232)"
       style="fill:#ffffff;fill-opacity:1"><path
         class="st0"
         d="m -22.5,-213.2 -1.9,-1.9 -17.6,17.6 c -2.2,2.2 -5.9,2.2 -8.1,0 l -17.6,-17.5 -1.9,1.9 13.1,13.1 -13.1,13.1 1.9,1.9 13.1,-13.1 2.6,2.6 c 1.6,1.6 3.7,2.5 5.9,2.5 2.2,0 4.3,-0.9 5.9,-2.5 l 2.6,-2.6 13.1,13.1 1.9,-1.9 -13.1,-13.1 13.2,-13.2"
         id="Fill-3"
         style="fill:#ffffff;fill-opacity:1" /><path
         class="st0"
         d="m -26.2,-181.6 h -39.5 c -2.3,0 -4.2,-1.9 -4.2,-4.2 V -214 c 0,-2.3 1.9,-4.2 4.2,-4.2 h 39.5 c 2.3,0 4.2,1.9 4.2,4.2 v 28.2 c 0,2.3 -1.9,4.2 -4.2,4.2 z m -39.6,-33.9 c -0.8,0 -1.4,0.6 -1.4,1.4 v 28.2 c 0,0.8 0.6,1.4 1.4,1.4 h 39.5 c 0.8,0 1.4,-0.6 1.4,-1.4 v -28.2 c 0,-0.8 -0.6,-1.4 -1.4,-1.4 z"
         id="Fill-4"
         style="fill:#ffffff;fill-opacity:1" /></g></g></svg>
