<?xml version="1.0" encoding="UTF-8" standalone="no"?>
<svg
   xmlns:dc="http://purl.org/dc/elements/1.1/"
   xmlns:cc="http://creativecommons.org/ns#"
   xmlns:rdf="http://www.w3.org/1999/02/22-rdf-syntax-ns#"
   xmlns:svg="http://www.w3.org/2000/svg"
   xmlns="http://www.w3.org/2000/svg"
   xmlns:sodipodi="http://sodipodi.sourceforge.net/DTD/sodipodi-0.dtd"
   xmlns:inkscape="http://www.inkscape.org/namespaces/inkscape"
   width="135.04333mm"
   height="135.04016mm"
   viewBox="0 0 135.04333 135.04016"
   version="1.1"
   id="svg8"
   inkscape:version="1.0.2-2 (e86c870879, 2021-01-15)"
   sodipodi:docname="medium-white-icon.svg">
  <defs
     id="defs2" />
  <sodipodi:namedview
     id="base"
     pagecolor="#ffffff"
     bordercolor="#666666"
     borderopacity="1.0"
     inkscape:pageopacity="0.0"
     inkscape:pageshadow="2"
     inkscape:zoom="0.35"
     inkscape:cx="269.48571"
     inkscape:cy="338.05114"
     inkscape:document-units="mm"
     inkscape:current-layer="layer1"
     inkscape:document-rotation="0"
     showgrid="false"
     inkscape:window-width="1920"
     inkscape:window-height="1001"
     inkscape:window-x="1271"
     inkscape:window-y="-9"
     inkscape:window-maximized="1"
     fit-margin-top="0"
     fit-margin-left="0"
     fit-margin-right="0"
     fit-margin-bottom="0" />
  <metadata
     id="metadata5">
    <rdf:RDF>
      <cc:Work
         rdf:about="">
        <dc:format>image/svg+xml</dc:format>
        <dc:type
           rdf:resource="http://purl.org/dc/dcmitype/StillImage" />
        <dc:title></dc:title>
      </cc:Work>
    </rdf:RDF>
  </metadata>
  <g
     inkscape:label="Ebene 1"
     inkscape:groupmode="layer"
     id="layer1"
     transform="translate(-34.531906,-58.723969)">
    <g
       style="clip-rule:evenodd;fill:#ffffff;fill-rule:evenodd;stroke-linejoin:round;stroke-miterlimit:2"
       id="g847"
       transform="matrix(0.26458333,0,0,0.26458333,34.320239,58.510715)">
      <path
         d="M 511.2,256 C 511.2,115.155 396.851,0.806 256.006,0.806 h -0.012 C 115.149,0.806 0.8,115.155 0.8,256 c 0,140.845 114.349,255.194 255.194,255.194 h 0.012 C 396.851,511.194 511.2,396.845 511.2,256 Z m -229.576,0.002 c 0,62.731 -50.508,113.584 -112.81,113.584 C 106.512,369.586 56,318.721 56,256.002 c 0,-62.72 50.508,-113.588 112.814,-113.588 62.306,0 112.81,50.857 112.81,113.588 z m 123.757,0 c 0,59.048 -25.255,106.934 -56.407,106.934 -31.153,0 -56.407,-47.886 -56.407,-106.934 0,-59.048 25.25,-106.935 56.403,-106.935 31.153,0 56.407,47.872 56.407,106.935 z m 50.619,0 c 0,52.892 -8.881,95.796 -19.838,95.796 -10.958,0 -19.835,-42.892 -19.835,-95.796 0,-52.904 8.88,-95.796 19.835,-95.796 10.954,0 19.838,42.888 19.838,95.796 z"
         id="path833"
         style="fill:#ffffff" />
    </g>
  </g>
</svg>
