<?xml version="1.0" encoding="UTF-8" standalone="no"?>
<svg
   xmlns:dc="http://purl.org/dc/elements/1.1/"
   xmlns:cc="http://creativecommons.org/ns#"
   xmlns:rdf="http://www.w3.org/1999/02/22-rdf-syntax-ns#"
   xmlns:svg="http://www.w3.org/2000/svg"
   xmlns="http://www.w3.org/2000/svg"
   xmlns:sodipodi="http://sodipodi.sourceforge.net/DTD/sodipodi-0.dtd"
   xmlns:inkscape="http://www.inkscape.org/namespaces/inkscape"
   enable-background="new 0 0 2000 1500"
   version="1.1"
   viewBox="0 0 2000 1500"
   id="svg80"
   sodipodi:docname="office.svg"
   inkscape:version="1.0.2-2 (e86c870879, 2021-01-15)">
  <metadata
     id="metadata86">
    <rdf:RDF>
      <cc:Work
         rdf:about="">
        <dc:format>image/svg+xml</dc:format>
        <dc:type
           rdf:resource="http://purl.org/dc/dcmitype/StillImage" />
        <dc:title></dc:title>
      </cc:Work>
    </rdf:RDF>
  </metadata>
  <defs
     id="defs84">
    <rect
       x="1427.7108"
       y="504.21687"
       width="357.83133"
       height="202.40964"
       id="rect939" />
  </defs>
  <sodipodi:namedview
     pagecolor="#ffffff"
     bordercolor="#666666"
     borderopacity="1"
     objecttolerance="10"
     gridtolerance="10"
     guidetolerance="10"
     inkscape:pageopacity="0"
     inkscape:pageshadow="2"
     inkscape:window-width="1920"
     inkscape:window-height="1001"
     id="namedview82"
     showgrid="false"
     inkscape:zoom="0.55333333"
     inkscape:cx="1000"
     inkscape:cy="750"
     inkscape:window-x="-9"
     inkscape:window-y="-9"
     inkscape:window-maximized="1"
     inkscape:current-layer="svg80" />
  <rect
     width="2e3"
     height="1500"
     enable-background="new "
     fill="#4EC2ED"
     opacity=".9"
     id="rect2" />
  <polygon
     points="0 1502.4 2e3 0 0 0"
     enable-background="new "
     fill="#8ED2EF"
     opacity=".5"
     id="polygon4" />
  <rect
     x="369.86"
     y="105.18"
     width="755.8"
     height="606.93"
     fill="#0086CD"
     id="rect6" />
  <circle
     cx="553.22"
     cy="298.03"
     r="133.24"
     fill="#FFEC00"
     id="circle8" />
  <path
     d="m1059.2 218.66c-0.158-4.356-3.737-7.837-8.131-7.837-2.465 0-4.673 1.098-6.164 2.827-0.649-3.328-3.581-5.842-7.1-5.842-1.463 0-2.825 0.438-3.963 1.183-0.63-8.749-7.927-15.653-16.837-15.653-8.102 0-14.869 5.703-16.508 13.31-1.65-1.143-3.649-1.813-5.81-1.813-5.637 0-10.207 4.57-10.207 10.207 0 1.274 0.234 2.492 0.661 3.618h74.059z"
     fill="#fff"
     id="path10" />
  <path
     d="m770.53 526.33c0.037-0.224 0.084-0.444 0.11-0.673 0.152 0.23 0.316 0.451 0.479 0.673h32.48c0.149-0.204 0.3-0.405 0.442-0.615 0.05 0.207 0.108 0.409 0.16 0.615h172.4c-3.187-7.259-10.435-12.33-18.87-12.33-6.272 0-11.887 2.807-15.666 7.229-1.373-13.73-12.96-24.449-27.05-24.449-6.362 0-12.208 2.189-16.839 5.849-5.298-21.021-24.325-36.583-46.992-36.583-22.908 0-42.09 15.898-47.148 37.259-3.608-5.362-9.733-8.891-16.683-8.891-11.087 0-20.077 8.981-20.094 20.064-2.697-3.189-6.726-5.217-11.23-5.217-8.121 0-14.705 6.584-14.705 14.706 0 0.804 0.067 1.594 0.192 2.363h29.009z"
     fill="#fff"
     id="path12" />
  <path
     d="m380.12 364.35h250.74c-0.833-22.812-19.576-41.051-42.59-41.051-12.91 0-24.468 5.745-32.287 14.811-3.401-17.438-18.753-30.6-37.183-30.6-7.667 0-14.798 2.284-20.761 6.198-3.296-45.829-41.514-81.984-88.182-81.984-10.435 0-20.442 1.815-29.735 5.134v127.49z"
     fill="#fff"
     id="path14" />
  <path
     d="m353.03 87.368v637.71h792.42v-637.71h-792.42zm755.52 608.02h-718.62v-578.34h718.62v578.34z"
     fill="#E75411"
     id="path16" />
  <path
     d="m1113.6 881.46v536.23c0 11.022 8.731 19.957 19.495 19.957h419.72c10.769 0 19.494-8.935 19.494-19.957v-536.23c0-11.021-8.727-19.957-19.494-19.957h-419.72c-10.764 0-19.495 8.935-19.495 19.957zm76.35 297.1c0-18.375 14.547-33.261 32.488-33.261h227.37c17.946 0 32.494 14.886 32.494 33.261v115.29c0 18.363-14.548 33.259-32.494 33.259h-227.37c-17.941 0-32.488-14.896-32.488-33.259v-115.29zm0-189.7c0-11.021 8.729-19.955 19.495-19.955h253.36c10.769 0 19.498 8.936 19.498 19.955v69.174c0 11.023-8.729 19.95-19.498 19.95h-253.36c-10.767 0-19.495-8.927-19.495-19.95v-69.174z"
     fill="#058181"
     id="path18" />
  <path
     d="m460.86 866.02h6.104c10.769 0 19.496 8.934 19.496 19.957v531.71c0 11.022-8.728 19.957-19.496 19.957h-6.104c-10.769 0-19.496-8.935-19.496-19.957v-531.71c0-11.024 8.728-19.957 19.496-19.957z"
     fill="#058181"
     id="path20" />
  <path
     d="m409.42 845.51h1179.6c10.769 0 19.496 8.929 19.496 19.95v12.039c0 11.021-8.728 19.948-19.496 19.948h-1179.6c-10.767 0-19.495-8.929-19.495-19.948v-12.039c0-11.022 8.728-19.95 19.495-19.95z"
     fill="#046781"
     id="path22" />
  <path
     d="m1364.7 1006.7c0 5.225-4.232 9.456-9.457 9.456h-38.155c-5.226 0-9.455-4.231-9.455-9.456 0-5.222 4.229-9.456 9.455-9.456h38.155c5.225 0 9.457 4.235 9.457 9.456z"
     fill="#058181"
     id="path24" />
  <path
     d="m1215.4 1209.2c5.223 0 9.455 4.234 9.455 9.458v38.155c0 5.224-4.232 9.456-9.455 9.456-5.228 0-9.459-4.232-9.459-9.456v-38.155c0-5.223 4.233-9.458 9.459-9.458z"
     fill="#058181"
     id="path26" />
  <path
     d="m615.22 576.29c0-6.137 4.979-11.112 11.118-11.112h360.07c6.137 0 11.116 4.976 11.116 11.112v242.44c0 6.137-4.979 11.113-11.116 11.113h-360.07c-6.139 0-11.118-4.978-11.118-11.113l1e-3 -242.44z"
     fill="#fff"
     id="path28" />
  <path
     d="m974.02 814.76c0 6.136-4.979 11.111-11.113 11.111h-313.02c-6.139 0-11.116-4.977-11.116-11.111v-216.95c0-6.138 4.978-11.116 11.116-11.116h313.02c6.136 0 11.113 4.979 11.113 11.116v216.95z"
     fill="#D6D7D6"
     id="path30" />
  <g
     opacity=".41"
     id="g34">
    <path
       d="m962.42 588.68h-211.65l221.3 154.88v-143.77c1e-3 -8.334-4.202-11.114-9.647-11.114z"
       fill="#C3C3C3"
       id="path32" />
  </g>
  <path
     d="m549.16 816.08c-6.138 0-8.954 5.235-7.195 11.114 0.585 1.959 1.784 6.511 2.29 8.493 1.52 5.947 6.608 9.8 12.748 9.8h496.8c6.138 0 11.229-3.853 12.746-9.8 0.508-1.982 1.706-6.534 2.292-8.493 1.76-5.879-1.057-11.114-7.196-11.114h-512.49z"
     fill="#fff"
     id="path36" />
  <g
     opacity=".2"
     id="g40">
    <path
       d="m752.45 816.08v6.529c0 6.141 4.979 11.115 11.116 11.115h85.604c6.136 0 11.115-4.976 11.115-11.115v-6.529h-107.84z"
       fill="#9EB6C9"
       id="path38" />
  </g>
  <path
     d="m772.78 816.08h-18.284c0.652 5.518 5.338 9.802 11.034 9.802h81.681c5.695 0 10.382-4.282 11.031-9.802h-85.462z"
     fill="#9EA09F"
     id="path42" />
  <g
     opacity=".2"
     id="g46">
    <path
       d="m1064.8 837.68h-518.88c2.351 3.664 6.39 5.883 11.045 5.883h496.8c4.652 0 8.695-2.219 11.046-5.883h-0.011z"
       fill="#9EB6C9"
       id="path44" />
  </g>
  <path
     d="m809.99 575.2c0 2.539-2.059 4.602-4.604 4.602-2.541 0-4.602-2.063-4.602-4.602 0-2.543 2.061-4.601 4.602-4.601 2.547 1e-3 4.604 2.058 4.604 4.601z"
     fill="#9EA09F"
     id="path48" />
  <path
     d="m1378.1 784.1c0-22.384-18.081-40.528-40.429-40.667v-5.433c0-9.263-7.51-16.77-16.771-16.77h-67.031c-9.26 0-16.771 7.507-16.771 16.77v90.7c0 9.262 7.512 16.771 16.771 16.771h67.031c9.262 0 16.771-7.509 16.771-16.771v-3.935c22.348-0.136 40.429-18.285 40.429-40.665zm-40.427 22.918v-45.84c12.547 0.136 22.678 10.339 22.678 22.921 0 12.58-10.131 22.784-22.678 22.919z"
     fill="#E75411"
     id="path50" />
  <path
     d="m1337.7 743.47v-5.432c0-9.262-7.51-16.768-16.773-16.768h-21.682v124.24h21.682c9.265 0 16.773-7.506 16.773-16.769v-3.935c22.348-0.141 40.429-18.288 40.429-40.669s-18.081-40.529-40.429-40.667zm0 63.588v-45.838c12.55 0.135 22.678 10.337 22.678 22.92 0 12.579-10.128 22.783-22.678 22.918z"
     fill="#C4490B"
     id="path52" />
  <path
     d="m1271.9 712.11s7.34-11.296 5.601-14.675c-1.739-3.38-14.193-16.704-11.779-22.304 2.414-5.602 6.614-12.143 2.414-17.5-4.2-5.359-17.887-27.157-16.005-35.701 1.884-8.545 10.212-22.594 20.254-36.497 10.041-13.904 1.157-32.636 2.315-32.636s18.73 16.414 17.187 25.104c-1.544 8.69-14.646 30.606-16.524 36.115-1.684 10.164-0.202 14.286 3.2 21.455 0 0-0.288 0.58-1.737-0.869-1.447-1.448-9.749-8.869-8.254-16.945 0.796-5.358 3.766-13.687 6.47-19.046 0 0-14.726 19.457-11.539 25.829 3.186 6.372 11.491 15.254 15.448 19.31 3.959 4.057 3.38 18.732-3.767 31.863-1.834 4.152 7.58 11.056 9.173 14.821s-5.07 15.4-12.457 21.676z"
     enable-background="new "
     fill="#fff"
     opacity=".3"
     id="path54" />
  <path
     d="m1296.7 707.06s4.53-7.108 3.229-11.193c-1.302-4.086-7.238-14.929-3.182-20.682 4.059-5.751 1.956-23.131 0.529-26.146 0 0 9.4 14.865 6.9 22.453-3.976 12.071 0 15.555 0.498 20.051 0.499 4.496-3.24 11.347-7.974 15.517z"
     enable-background="new "
     fill="#fff"
     opacity=".3"
     id="path56" />
  <path
     d="m1306.2 639.62s-7.975-13.471-5.775-17.412c2.2-3.939 6.965-12.921 6.6-21.442 0 0 0.723 13.729-2.385 21.536-3.104 7.805 1.56 17.318 1.56 17.318z"
     enable-background="new "
     fill="#fff"
     opacity=".3"
     id="path58" />
  <rect
     x="1283.1"
     y="238.66"
     width="345.08"
     height="226.62"
     fill="#fff"
     id="rect60" />
  <polygon
     points="1488.2 232.3 1455.7 149.04 1423.1 232.3 1418.8 228.64 1453.4 140.18 1455.7 136.92 1458 140.35 1492.5 228.64"
     fill="#046781"
     id="polygon62" />
  <polyline
     points="1628.2 465.28 1283.1 238.66 1628.2 238.66 1628.2 465.28"
     enable-background="new "
     fill="#E3E3E3"
     opacity=".5"
     id="polyline64" />
  <path
     d="m1264.4 220.13v263.68h382.59v-263.68h-382.59zm363.84 245.15h-345.08v-226.62h345.08v226.62z"
     fill="#046781"
     id="path66" />
  <path
     d="m1278.8 233.98v235.99h353.78v-235.99h-353.78zm349.43 231.31h-345.08v-226.62h345.08v226.62z"
     fill="#055166"
     id="path68" />
  <circle
     cx="1455.7"
     cy="142.59"
     r="7.129"
     fill="#055166"
     id="circle70" />
  <g
     id="layer1"
     transform="matrix(0.63222934,0,0,0.63222934,1391.295,254.78523)"
     style="fill:#046781;fill-opacity:1">
    <g
       transform="matrix(0.67566081,0,0,0.97143913,-100.60286,-72.771016)"
       id="g1135"
       style="fill:#046781;fill-opacity:1">
      <g
         id="g1133"
         style="fill:#046781;fill-opacity:1">
        <g
           id="g1131"
           style="fill:#046781;fill-opacity:1">
          <path
             d="M 253.95,200.83 V 78.67 h 101 l -1,47.16 h -75 v 75 h 50 v -25 h -25 v -25 h 50 l 1,50 h 24 V 78.67 h 75 v 300 h -75 v -125 h -25 v 125 h -100 v -125 h -25 v 125 h -75 v -300 h 75 v 122.16 z m 75,52.84 h -50 v 75 h 50 z m 0,0 -0.11,0.18 -38.91,58.49 -10.98,16.33 49.89,-74.82 z"
             id="use1129"
             style="fill:#046781;fill-opacity:1" />
        </g>
      </g>
    </g>
  </g>
</svg>
