<?xml version="1.0" encoding="UTF-8" standalone="no"?>
<svg
   xmlns:dc="http://purl.org/dc/elements/1.1/"
   xmlns:cc="http://creativecommons.org/ns#"
   xmlns:rdf="http://www.w3.org/1999/02/22-rdf-syntax-ns#"
   xmlns:svg="http://www.w3.org/2000/svg"
   xmlns="http://www.w3.org/2000/svg"
   xmlns:sodipodi="http://sodipodi.sourceforge.net/DTD/sodipodi-0.dtd"
   xmlns:inkscape="http://www.inkscape.org/namespaces/inkscape"
   width="121.70463mm"
   height="53.62289mm"
   viewBox="0 0 121.70463 53.62289"
   version="1.1"
   id="svg8"
   inkscape:version="1.0.2-2 (e86c870879, 2021-01-15)"
   sodipodi:docname="Skype-white.svg">
  <defs
     id="defs2" />
  <sodipodi:namedview
     id="base"
     pagecolor="#ffffff"
     bordercolor="#666666"
     borderopacity="1.0"
     inkscape:pageopacity="0.0"
     inkscape:pageshadow="2"
     inkscape:zoom="0.35"
     inkscape:cx="212.85014"
     inkscape:cy="164.19166"
     inkscape:document-units="mm"
     inkscape:current-layer="layer1"
     inkscape:document-rotation="0"
     showgrid="false"
     fit-margin-top="0"
     fit-margin-left="0"
     fit-margin-right="0"
     fit-margin-bottom="0"
     inkscape:window-width="1313"
     inkscape:window-height="1030"
     inkscape:window-x="224"
     inkscape:window-y="0"
     inkscape:window-maximized="0" />
  <metadata
     id="metadata5">
    <rdf:RDF>
      <cc:Work
         rdf:about="">
        <dc:format>image/svg+xml</dc:format>
        <dc:type
           rdf:resource="http://purl.org/dc/dcmitype/StillImage" />
        <dc:title></dc:title>
      </cc:Work>
    </rdf:RDF>
  </metadata>
  <g
     inkscape:label="Ebene 1"
     inkscape:groupmode="layer"
     id="layer1"
     transform="translate(-49.516733,-104.72429)">
    <path
       d="m 127.7482,123.82377 c -3.72189,-0.0489 -5.11783,3.31602 -5.11783,6.94425 0,3.27978 1.22819,7.08316 5.11783,7.08316 4.05818,-0.045 5.05963,-4.11241 5.05963,-7.08316 0,-3.75867 -1.65947,-6.89848 -5.05963,-6.94425 z m 22.93938,-0.52626 c -3.19537,0 -5.11572,1.96771 -5.80972,5.07021 h 11.17917 c -0.34528,-2.92311 -2.52942,-5.07021 -5.36945,-5.07021 z m 20.53378,-1.80763 c 0,-3.70205 -2.99164,-6.69211 -6.69131,-6.69211 -1.91268,0 -3.6285,0.79746 -4.84532,2.08148 -2.83104,-1.96771 -6.26057,-3.12023 -9.97214,-3.12023 -3.74809,0 -7.20487,1.17951 -10.05549,3.18558 -1.28323,-1.19009 -2.98821,-1.91267 -4.87177,-1.91267 -1.397,0 -2.70034,0.40428 -3.80471,1.0967 -2.61514,-4.66593 -7.60042,-7.81553 -13.32627,-7.81553 -5.23796,0 -9.85017,2.6252 -12.61322,6.6257 -2.30558,-2.36908 -5.529524,-3.84175 -9.099812,-3.84175 -2.36167,0 -4.563268,0.6469 -6.457156,1.77006 -0.04551,-4.50718 -3.70205,-8.14282 -8.218223,-8.14282 -4.545541,0 -8.227483,3.68327 -8.227483,8.21849 l 0.01905,0.31909 c -0.881063,-0.13097 -1.780646,-0.20611 -2.699279,-0.20611 -2.679965,0 -5.21044,0.58975 -7.487709,1.63962 -1.283229,-0.68395 -2.736585,-1.07844 -4.292335,-1.07844 -4.994275,0 -9.06145,4.05818 -9.06145,9.0633 0,2.65165 1.152789,5.02206 2.961745,6.68179 -0.04736,0.54372 -0.07567,1.0967 -0.07567,1.64888 0,9.91526 8.040953,17.94563 17.955684,17.94563 3.850746,0 7.422357,-1.21814 10.344415,-3.28004 2.634192,3.59992 6.880225,5.95127 11.67765,5.95127 0.121444,0 0.234421,-0.009 0.346075,-0.0198 1.387475,3.92721 5.108046,6.73921 9.502508,6.73921 4.44341,0 8.21875,-2.88608 9.54881,-6.88817 1.52877,2.89587 4.55428,4.8641 8.04942,4.8641 4.36774,0 8.0137,-3.08292 8.89424,-7.1874 0.62812,0.0831 1.27343,0.14102 1.92113,0.14102 3.56209,0 6.7953,-1.35176 9.25751,-3.55309 2.79453,1.90209 6.1767,3.0181 9.81234,3.0181 9.66311,0 17.48763,-7.83537 17.48763,-17.49663 0,-1.19089 -0.11298,-2.36167 -0.34713,-3.48615 2.5482,-0.94721 4.36827,-3.39196 4.36827,-6.26904 z m -11.93006,10.54153 h -14.41371 c 0,3.36444 2.18308,5.81951 5.89386,5.81951 4.80801,0 4.80801,-3.14801 7.38478,-3.14801 1.52824,0 2.62388,1.31207 2.62388,2.49211 0,3.84201 -6.16532,5.63139 -10.00866,5.63139 -7.25196,0 -10.83283,-3.99124 -11.90969,-8.47064 -0.96493,4.69609 -4.04098,8.47064 -9.50383,8.47064 -2.92338,0 -5.1054,-1.17925 -6.2865,-3.23136 h -0.0937 v 8.51932 c 0,2.09815 -1.26656,3.19405 -3.18664,3.19405 -1.92299,0 -3.18664,-1.09617 -3.18664,-3.19405 v -23.7662 l -7.16968,20.31709 c -1.52586,4.36616 -3.28004,6.64316 -7.29986,6.64316 -2.838712,0 -4.020606,-1.39594 -4.020606,-2.93317 0,-1.70683 1.228196,-2.57783 2.934496,-2.57783 h 0.65511 c 0.82497,0 1.74254,-0.0362 2.22197,-2.00528 l -6.635756,-18.91956 c -0.233891,-0.68448 -0.411956,-1.19909 -0.542131,-1.63116 -0.150813,0.19712 -0.318558,0.37465 -0.517525,0.58208 l -4.712758,4.93819 6.644745,8.91222 c 0.215107,0.29898 0.655109,1.00304 0.655109,2.05132 0,1.62189 -1.311275,3.10118 -3.016515,3.10118 -1.574535,0 -2.409031,-0.78528 -2.886339,-1.47929 l -6.026944,-8.52831 -2.229644,1.96797 v 4.85431 c 0,2.091 -1.265502,3.18532 -3.186642,3.18532 -1.9304,0 -3.195902,-1.09432 -3.195902,-3.18532 v -2.35215 c -1.142206,3.76714 -5.406495,5.53747 -9.520502,5.53747 -5.763418,0 -10.570104,-2.57625 -10.570104,-5.72453 0,-1.39594 0.786606,-2.66118 2.576513,-2.66118 2.754577,0 3.018102,3.93515 7.731125,3.93515 2.268273,0 3.71131,-1.01203 3.71131,-2.31404 0,-1.62111 -1.397,-1.88304 -3.66395,-2.45507 l -3.757877,-0.9099 c -3.711046,-0.91679 -6.597386,-2.45481 -6.597386,-6.73815 0,-5.19006 5.154084,-7.12073 9.566805,-7.12073 4.844521,0 9.745927,1.93067 9.745927,4.85378 0,1.48908 -1.011767,2.79321 -2.669911,2.79321 -2.493168,0 -2.577835,-2.92471 -6.59765,-2.92471 -2.229643,0 -3.67321,0.60908 -3.67321,1.96771 0,1.48167 1.443567,1.837 3.411008,2.2696 l 2.660915,0.61753 c 3.065462,0.69348 6.616965,1.90236 7.646458,4.93898 v -19.93212 c 0,-2.08968 1.265502,-3.18585 3.195902,-3.18585 1.92114,0 3.186642,1.09617 3.186642,3.18585 v 14.50472 l 7.074958,-7.86156 c 0.656432,-0.70247 1.490398,-1.22714 2.446073,-1.22714 1.040077,0 2.145242,0.67442 2.680229,1.64888 0.515409,-0.99404 1.54649,-1.64888 2.745582,-1.64888 1.704975,0 2.886075,0.96467 3.269725,2.40771 l 4.114,14.90027 h 0.0849 l 3.89017,-14.45895 c 0.44,-1.62189 1.31101,-2.84903 3.06361,-2.84903 1.50865,0 2.37993,0.74851 2.8403,1.51739 0.38233,-0.98399 1.23614,-1.51739 2.61329,-1.51739 1.88357,0 2.88608,1.05754 2.88608,3.01652 v 1.00303 h 0.0937 c 1.05119,-2.70669 3.62717,-4.01955 6.71936,-4.01955 4.554,0 8.62118,2.85829 9.7192,8.82729 1.2356,-5.39723 5.38718,-8.82729 11.65754,-8.82729 7.33769,0 11.53557,5.20065 11.53557,10.4484 0.001,2.1836 -0.65537,2.74505 -2.80061,2.74505 z m 4.31905,-11.99489 h -1.19856 v 3.28057 h -0.89058 v -3.28057 h -1.19989 v -0.73977 h 3.2893 v 0.73977 z m 4.78817,3.28057 h -0.82365 c 0,0 -0.01,0 -0.01,-2.8493 l -0.98505,2.8493 h -0.68395 c 0,0 -0.01,0 -0.99271,-2.82125 v 2.82125 h -0.8345 v -4.02034 h 1.24751 c 0,0 0.01,0 0.95568,2.76384 l 0.89032,-2.76384 h 1.23587 z"
       style="clip-rule:evenodd;fill:#ffffff;fill-rule:evenodd;stroke-width:0.264583"
       id="path2" />
  </g>
</svg>
